<?xml version="1.0" encoding="utf-8" standalone="yes"?>
<!DOCTYPE svg PUBLIC "-//W3C//DTD SVG 1.1//EN" "http://www.w3.org/Graphics/SVG/1.1/DTD/svg11.dtd">

<svg xmlns="http://www.w3.org/2000/svg" xmlns:xlink="http://www.w3.org/1999/xlink" xmlns:dc="http://purl.org/dc/elements/1.1/" xmlns:cc="http://web.resource.org/cc/" xmlns:rdf="http://www.w3.org/1999/02/22-rdf-syntax-ns#" xmlns:sodipodi="http://sodipodi.sourceforge.net/DTD/sodipodi-0.dtd" xmlns:inkscape="http://www.inkscape.org/namespaces/inkscape" version="1.1" baseProfile="full" width="1024px" height="600px" viewBox="0 0 1024 600" preserveAspectRatio="xMidYMid meet" id="svg_document" style="zoom: 1;">
<title id="svg_document_title">Untitled.svg</title>
<defs id="svg_document_defs">
<style>.radio-btn{fill:none;stroke:#ccc;stroke-miterlimit:10;stroke-width:5px;} 
<!-- .radio-on{fill:#ccc} -->
<!-- .radio-off{fill:none} --></style></defs>
<g id="main_group">
<rect x="0px" height="600px" y="1px" id="background_rect" width="1024px" fill="#000"></rect>
<!-- <path id="reset" d="M59.699997,33.599998 c-4.2,-8.7 -13.6,-13.1 -22.6,-11.5 l2.4,-4.5 c0.6,-1 0.2,-2.3 -0.8,-2.8 c-1,-0.6 -2.3,-0.2 -2.8,0.8 L31,24.700001 c0,0 -1.1,1.8 0.6,2.6 l9.1,4.9 c0.3,0.2 0.7,0.3 1,0.3 c0.7,0 1.5,-0.4 1.8,-1.1 c0.6,-1 0.2,-2.3 -0.8,-2.8 L38,26 c7.1,-1.2 14.5,2.4 17.8,9.2 c4,8.3 0.5,18.3 -7.8,22.2 c-4,1.9 -8.5,2.2 -12.7,0.7 s-7.6,-4.5 -9.5,-8.5 s-2.2,-8.5 -0.7,-12.7 c0.4,-1.1 -0.2,-2.3 -1.3,-2.7 c-1,-0.2 -2.2,0.4 -2.6,1.5 C19.400002,41 19.700001,46.599998 22.099998,51.599998 S28.700001,60.400002 34,62.300003 c2.3,0.8 4.6,1.2 6.9,1.2 c3.1,0 6.2,-0.7 9,-2.1 C60.300003,56.400002 64.699997,43.900002 59.699997,33.599998 z" fill="#ccc"></path> -->
<text id="sensor.clock_time" y="2px" style="fill:#00ADEE; enable-background:new; font-family:'Helvetica'; font-size:24;" transform="matrix(0.8191 0 0 1 950 30)" x="-9.766819px">10:36</text>
<text id="sensor.clock_am_pm" transform="matrix(0.8191 0 0 1 995 30)" style="fill:#00ADEE; font-family:'Helvetica'; font-size:12px;">XX</text>
<g id="front">
<text id="front-name" y="120px" style="fill:#00ADEE; font-family:'Helvetica'; font-size:24;" text-anchor="middle" x="239px">Front of House</text>
<text id="front-setpoint-header" y="269px" style="fill:#00ADEE; font-family:'Helvetica'; font-size:24;" text-anchor="middle" x="297px">Setpoint</text>
<text id="sensor.front_temps" y="259px" style="fill:#00ADEE; enable-background:new; font-family:'Helvetica'; font-size:24;" text-anchor="middle" x="124px">72째F</text>
<text id="input_number.front_heating_target" y="304px" style="fill:#00ADEE; enable-background:new; font-family:'Helvetica'; font-size:24;" text-anchor="middle" x="293px">74째F</text>
<g id="therm_front">
<path d="M204,306.200012 V217.999985 c0,-2.475 -2.025,-4.5 -4.5,-4.5 s-4.5,2.025 -4.5,4.5 v88.200005 c-9,2.025 -15.75,10.125 -15.75,19.800001 c0,11.25 9.225,20.25 20.25,20.25 s20.25,-9.225 20.25,-20.25 C219.75,316.325012 213.225006,308.225006 204,306.200012 z" fill="#ccc"></path>
<path d="M225.700012,285.5 v-72 c0,-11.924999 -9.674999,-21.375 -21.375,-21.375 H199.374985 h-4.95 c-11.924999,0 -21.375,9.674999 -21.375,21.375 v72 C159.999985,294.274994 152.124985,309.125 152.124985,324.875 c0,26.100002 21.15,47.25 47.25,47.25 s47.25,-21.15 47.25,-47.25 C246.625,309.125 238.75,294.274994 225.700012,285.5 z M199.374985,363.125 c-20.925001,0 -38.25,-17.099998 -38.25,-38.25 c0,-13.5 7.2,-26.100002 18.9,-32.850002 c0,0 0,0 0,0 c0.225,-0.225 0.45,-0.225 0.675,-0.45 c0,0 0,0 0.225,-0.225 c0.225,-0.225 0.225,-0.225 0.45,-0.45 c0,0 0,0 0.225,-0.225 c0.225,-0.225 0.225,-0.45 0.45,-0.675 c0,0 0,-0.225 0,-0.225 c0,-0.225 0.225,-0.45 0.225,-0.675 c0,0 0,-0.225 0,-0.225 c0,-0.225 0,-0.45 0,-0.45 c0,-0.225 0,-0.225 0,-0.45 c0,0 0,0 0,-0.225 V213.5 c0,-6.75 5.4,-12.150001 12.150001,-12.150001 H199.374985 h4.95 c6.75,0 12.150001,5.4 12.150001,12.150001 v74.474998 c0,0 0,0 0,0.225 c0,0.225 0,0.225 0,0.45 c0,0.225 0,0.45 0,0.45 c0,0 0,0.225 0,0.225 c0,0.225 0.225,0.45 0.225,0.675 c0,0 0,0.225 0,0.225 c0,0.225 0.225,0.45 0.45,0.675 c0,0 0,0.225 0.225,0.225 c0.225,0.225 0.225,0.45 0.45,0.45 c0,0 0,0 0.225,0.225 c0.225,0.225 0.45,0.225 0.675,0.45 c0,0 0,0 0,0 C230.424957,298.774994 237.625,311.375 237.625,324.875 C237.625,345.799988 220.299957,363.125 199.374985,363.125 z" fill="#ccc"></path>
</g>
<path id="front-up" d="M289,158 C270.443237,158 255.399994,173.043243 255.399994,191.600006 C255.399994,210.156769 270.443237,225.199997 289,225.199997 C307.556763,225.199997 322.600006,210.156769 322.600006,191.600006 C322.600006,173.043243 307.556763,158 289,158 z M288.875,178.800003 A1.60016,1.60016 0 0 1 290.174988,179.300003 L307.774994,198.5 A1.601039,1.601039 0 0 1 305.424988,200.675003 L289,182.75 L272.575012,200.675003 A1.601039,1.601039 0 0 1 270.225006,198.5 L287.825012,179.300003 A1.60016,1.60016 0 0 1 288.875,178.800003 z" fill="#F8D2B9"></path>
<path id="front-down" d="M292,342 C273.443237,342 258.399994,357.043243 258.399994,375.600006 C258.399994,394.156769 273.443237,409.200012 292,409.200012 C310.556763,409.200012 325.600006,394.156769 325.600006,375.600006 C325.600006,357.043243 310.556763,342 292,342 z M274.299988,365.975006 A1.60016,1.60016 0 0 1 275.575012,366.5 L292,384.424988 L308.424988,366.5 A1.601025,1.601025 0 1 1 310.774994,368.674988 L293.174988,387.875 A1.60016,1.60016 0 0 1 290.825012,387.875 L273.225006,368.674988 A1.60016,1.60016 0 0 1 274.299988,365.975006 z" fill="#F8D2B9"></path>
</g>
<g id="rear">
<text id="rear-name" y="122px" style="fill:#00ADEE; font-family:'Helvetica'; font-size:24;" text-anchor="middle" x="714px">Rear of House</text>
<text id="rear-setpoint-header" y="271px" style="fill:#00ADEE; font-family:'Helvetica'; font-size:24;" text-anchor="middle" x="772px">Setpoint</text>
<text id="sensor.rear_temps" y="261px" style="fill:#00ADEE; enable-background:new; font-family:'Helvetica'; font-size:24;" text-anchor="middle" x="599px">72째F</text>
<text id="input_number.rear_heating_target" y="306px" style="fill:#00ADEE; enable-background:new; font-family:'Helvetica'; font-size:24;" text-anchor="middle" x="768px">74째F</text>
<g id="therm_rear">
<path d="M679,308.200012 V219.999985 c0,-2.475 -2.025,-4.5 -4.5,-4.5 s-4.5,2.025 -4.5,4.5 v88.200005 c-9,2.025 -15.75,10.125 -15.75,19.800001 c0,11.25 9.225,20.25 20.25,20.25 s20.25,-9.225 20.25,-20.25 C694.75,318.325012 688.224976,310.225006 679,308.200012 z" fill="#ccc"></path>
<path d="M700.700012,287.5 v-72 c0,-11.924999 -9.674999,-21.375 -21.375,-21.375 H674.375 h-4.95 c-11.924999,0 -21.375,9.674999 -21.375,21.375 v72 C635,296.274994 627.125,311.125 627.125,326.875 c0,26.100002 21.15,47.25 47.25,47.25 s47.25,-21.15 47.25,-47.25 C721.625,311.125 713.75,296.274994 700.700012,287.5 z M674.375,365.125 c-20.925001,0 -38.25,-17.099998 -38.25,-38.25 c0,-13.5 7.2,-26.100002 18.9,-32.850002 c0,0 0,0 0,0 c0.225,-0.225 0.45,-0.225 0.675,-0.45 c0,0 0,0 0.225,-0.225 c0.225,-0.225 0.225,-0.225 0.45,-0.45 c0,0 0,0 0.225,-0.225 c0.225,-0.225 0.225,-0.45 0.45,-0.675 c0,0 0,-0.225 0,-0.225 c0,-0.225 0.225,-0.45 0.225,-0.675 c0,0 0,-0.225 0,-0.225 c0,-0.225 0,-0.45 0,-0.45 c0,-0.225 0,-0.225 0,-0.45 c0,0 0,0 0,-0.225 V215.5 c0,-6.75 5.4,-12.150001 12.150001,-12.150001 H674.375 h4.95 c6.75,0 12.150001,5.4 12.150001,12.150001 v74.474998 c0,0 0,0 0,0.225 c0,0.225 0,0.225 0,0.45 c0,0.225 0,0.45 0,0.45 c0,0 0,0.225 0,0.225 c0,0.225 0.225,0.45 0.225,0.675 c0,0 0,0.225 0,0.225 c0,0.225 0.225,0.45 0.45,0.675 c0,0 0,0.225 0.225,0.225 c0.225,0.225 0.225,0.45 0.45,0.45 c0,0 0,0 0.225,0.225 c0.225,0.225 0.45,0.225 0.675,0.45 c0,0 0,0 0,0 C705.424927,300.774994 712.625,313.375 712.625,326.875 C712.625,347.799988 695.299927,365.125 674.375,365.125 z" fill="#ccc"></path>
</g>
<path d="M764,160 C745.443237,160 730.400024,175.043243 730.400024,193.600006 C730.400024,212.156769 745.443237,227.200012 764,227.200012 C782.556763,227.200012 797.599976,212.156769 797.599976,193.600006 C797.599976,175.043243 782.556763,160 764,160 z M763.875,180.800003 A1.60016,1.60016 0 0 1 765.174988,181.300003 L782.775024,200.5 A1.601039,1.601039 0 0 1 780.424988,202.675003 L764,184.75 L747.575012,202.675003 A1.601039,1.601039 0 0 1 745.224976,200.5 L762.825012,181.300003 A1.60016,1.60016 0 0 1 763.875,180.800003 z" id="rear-up" fill="#F8D2B9"></path>
<path d="M767,344 C748.443237,344 733.400024,359.043243 733.400024,377.600006 C733.400024,396.156769 748.443237,411.200012 767,411.200012 C785.556763,411.200012 800.599976,396.156769 800.599976,377.600006 C800.599976,359.043243 785.556763,344 767,344 z M749.299988,367.975006 A1.60016,1.60016 0 0 1 750.575012,368.5 L767,386.424988 L783.424988,368.5 A1.601025,1.601025 0 1 1 785.775024,370.674988 L768.174988,389.875 A1.60016,1.60016 0 0 1 765.825012,389.875 L748.224976,370.674988 A1.60016,1.60016 0 0 1 749.299988,367.975006 z" id="rear-down" fill="#F8D2B9"></path>
</g>
<!-- <rect id="input_boolean.windows_open_mode" x="126px" height="49px" y="442px" stroke-width="0px" width="85px" fill="#000"></rect> -->
<!-- <text y="476px" id="text1" style="fill:#00ADEE; font-family:'Helvetica'; font-size:24;" text-anchor="middle" x="306px">Windows Open</text> -->
<rect x="865px" height="45" y="427px" width="45" class="radio-btn" rx="17.25" ry="17.25"></rect>
<rect id="radio_button.heat" x="870px" height="35" y="432px" width="35" rx="10.98" ry="10.98"></rect>
<text id="text2" y="461px" style="fill:#00ADEE; font-family:'Helvetica'; font-size:24;" text-anchor="left" x="925px">Heat</text>
<rect x="865px" height="45" y="484px" width="45" class="radio-btn" rx="17.25" ry="17.25"></rect>
<rect id="radio_button.cool" x="870px" height="35" y="489px" width="35" rx="10.98" ry="10.98"></rect>
<text id="text3" y="517px" style="fill:#00ADEE; font-family:'Helvetica'; font-size:24;" text-anchor="left" x="925px">A/C</text>
<rect x="865px" height="45" y="541px" width="45" class="radio-btn" rx="17.25" ry="17.25"></rect>
<rect id="radio_button.nope" x="870px" height="35" y="546px" width="35" rx="10.98" ry="10.98"></rect>
<text id="text4" y="574px" style="fill:#00ADEE; font-family:'Helvetica'; font-size:24;" text-anchor="left" x="925px">Off</text>

<rect x="65px" height="45" y="427px" width="45" class="radio-btn" rx="17.25" ry="17.25"></rect>
<rect id="switch.plug_1" x="70px" height="35" y="432px" width="35" rx="10.98" ry="10.98"></rect>
<text id="text2" y="461px" style="fill:#00ADEE; font-family:'Helvetica'; font-size:24;" text-anchor="left" x="125px">Tree</text>
<rect x="65px" height="45" y="484px" width="45" class="radio-btn" rx="17.25" ry="17.25"></rect>
<rect id="switch.plug_2" x="70px" height="35" y="489px" width="35" rx="10.98" ry="10.98"></rect>
<text id="text3" y="517px" style="fill:#00ADEE; font-family:'Helvetica'; font-size:24;" text-anchor="left" x="125px">Porch</text>

</g>
</svg>
