<?xml version="1.0" encoding="utf-8" standalone="yes"?>
<!DOCTYPE svg PUBLIC "-//W3C//DTD SVG 1.1//EN" "http://www.w3.org/Graphics/SVG/1.1/DTD/svg11.dtd">
<svg xmlns="http://www.w3.org/2000/svg" xmlns:xlink="http://www.w3.org/1999/xlink" xmlns:dc="http://purl.org/dc/elements/1.1/" xmlns:cc="http://web.resource.org/cc/" xmlns:rdf="http://www.w3.org/1999/02/22-rdf-syntax-ns#" xmlns:sodipodi="http://sodipodi.sourceforge.net/DTD/sodipodi-0.dtd" xmlns:inkscape="http://www.inkscape.org/namespaces/inkscape" version="1.1" baseProfile="full" width="1024px" height="768px" viewBox="0 0 1024 768" preserveAspectRatio="xMidYMid meet" id="svg_document" style="zoom: 0.5;">
<title id="svg_document_title">Untitled.svg</title>
<defs id="svg_document_defs"></defs>
<g id="main_group">
<rect x="-3px" height="768px" y="0px" id="background_rect" width="1024px" fill="#000"></rect>
<path id="dog" d="M212.087494,405.544006 c0.27836,10.07195 2.24951,30.14355 2.24951,30.14355 c0.79523,10.65605 1.63229,21.31091 2.69943,31.94316 c0.64834,6.45962 2.24952,19.34587 2.24952,19.34587 c0.3533,3.03828 0.67076,6.15525 1.79962,8.99807 c0.52214,1.31492 2.24951,3.59924 2.24951,3.59924 c1.68092,2.68948 1.04995,6.2773 1.12476,9.44797 c0.0745,3.15647 -0.67486,9.44798 -0.67486,9.44798 c-0.12207,1.70883 -1.50218,3.09239 -2.02456,4.72399 c-1.28711,4.02012 -2.52959,8.15464 -2.69943,12.37236 c-0.11262,2.79735 1.12476,8.32321 1.12476,8.32321 c0.17766,1.31466 1.69812,2.05417 2.69943,2.92438 c0.89489,0.7777 1.8186,1.59688 2.92438,2.02456 c1.05831,0.40932 2.24463,0.55708 3.37427,0.4499 c0.70819,-0.0671 1.44106,-0.26798 2.02457,-0.67485 c0.39384,-0.27462 0.89981,-1.12476 0.89981,-1.12476 c0.56406,-0.70507 1.09846,1.45565 1.79961,2.02456 c0.93889,0.76181 3.14933,1.79963 3.14933,1.79963 c1.20046,0.68598 2.66699,0.8628 4.04912,0.8998 c0.9119,0.0244 2.69943,-0.4499 2.69943,-0.4499 c0.53846,-0.0897 1.0594,-0.26964 1.57466,-0.4499 c0.92011,-0.3219 2.69943,-1.12477 2.69943,-1.12477 c1.02896,-0.42873 1.37127,1.78798 2.24951,2.47447 c0.87227,0.68181 2.92438,1.57466 2.92438,1.57466 c1.0666,0.57432 2.39153,-0.64138 3.37427,-1.3497 c1.03591,-0.74663 2.47448,-2.92438 2.47448,-2.92438 c1.21185,-1.43218 -0.12869,-3.78133 0.22495,-5.6238 c0.25482,-1.32755 1.41722,-2.47407 1.34971,-3.82417 c0,0 0.22185,-3.06551 -0.22495,-4.49904 c-0.55107,-1.76809 -1.97154,-3.13594 -2.92437,-4.72399 c0,0 -2.95295,-4.3652 -4.04914,-6.74856 c-1.18899,-2.58511 -2.01873,-5.33544 -2.69941,-8.09827 c-0.78148,-3.1719 -1.14539,-6.4345 -1.57467,-9.67293 c-0.77262,-5.82845 -1.79962,-17.54625 -1.79962,-17.54625 c-0.69064,-6.73361 -1.25568,-13.48425 -1.57467,-20.24566 c-0.4241,-8.98933 -0.4499,-26.99423 -0.4499,-26.99423 c-0.0612,-3.67447 0.0692,-7.35096 0.22495,-11.02264 c0.0988,-2.32724 0.12132,-4.66746 0.44992,-6.9735 c0.29258,-2.05321 1.3497,-6.0737 1.3497,-6.0737 c0.41661,-1.8748 2.33437,-3.05387 3.59924,-4.49904 c1.5718,-1.79587 4.94893,-5.17389 4.94893,-5.17389 c1.69225,-1.76917 3.61559,-3.3237 5.62379,-4.72399 c1.48767,-1.03734 4.72399,-2.69943 4.72399,-2.69943 c1.0437,-0.5964 2.40126,-0.12559 3.59924,-0.22495 c2.17866,-0.18069 6.5236,-0.67486 6.5236,-0.67486 c1.94497,-0.2012 4.37645,-0.83683 5.84876,0.44991 c0.80839,0.7065 0.67485,3.14933 0.67485,3.14933 l0.89981,9.89788 c0.32762,3.60384 0.75725,7.1977 1.12475,10.79769 c0.38264,3.74842 1.12476,11.24759 1.12476,11.24759 c0.43589,4.35888 1.18588,8.68386 1.57467,13.04721 c0.34662,3.89023 0.67485,11.6975 0.67485,11.6975 c0.12963,2.24703 0.18746,4.49809 0.22496,6.74855 c0.0237,1.42451 0,4.27409 0,4.27409 c0,1.16407 0.47479,2.29058 0.8998,3.37428 c0.52662,1.34277 2.02456,3.82417 2.02456,3.82417 c0.98486,1.86029 0.20163,4.20845 0.44991,6.29866 c0.26901,2.26463 -0.0294,4.78158 1.12475,6.74856 c0.97189,1.65646 4.49904,3.59923 4.49904,3.59923 c0.98152,0.78521 0.73239,2.40507 1.12477,3.59922 c0.71804,2.18524 2.24951,6.52361 2.24951,6.52361 c0.65817,1.90871 1.97072,3.5346 3.14933,5.1739 c1.08727,1.51227 3.59924,4.27407 3.59924,4.27407 c0.84352,1.00168 2.30456,1.37783 3.59922,1.57467 c1.3426,0.20411 3.14934,-0.22495 4.04914,-0.4499 c0.89981,-0.22495 3.03333,-0.81836 3.82418,-2.02457 c0.53606,-0.8176 -0.65411,-2.49647 0.22495,-2.92437 c0.72927,-0.35499 2.02457,1.34971 2.02457,1.34971 c2.27104,1.51402 4.96429,2.42874 7.64836,2.92438 c1.69596,0.31317 3.55227,0.58711 5.1739,0 c1.10133,-0.39875 2.07673,-1.25748 2.69941,-2.24953 c0.32872,-0.52372 0.47364,-1.18174 0.44991,-1.79961 c-0.0364,-0.94779 -0.89981,-2.69943 -0.89981,-2.69943 c-0.1852,-0.55559 1.0055,-0.65094 1.34971,-1.12475 c0.47468,-0.65338 0.89982,-2.24952 0.89982,-2.24952 c0.30633,-0.76583 0.26083,-1.69197 0,-2.47447 c-0.35569,-1.06704 -2.02458,-2.69942 -2.02458,-2.69942 c-2.23508,-2.9801 -5.60887,-4.90998 -8.54817,-7.19847 c-2.33161,-1.81536 -7.19846,-5.17389 -7.19846,-5.17389 c-1.63833,-1.17754 -3.30859,-2.42014 -4.49904,-4.04914 c-1.50489,-2.05928 -3.14933,-6.9735 -3.14933,-6.9735 c-1.19249,-2.64055 -1.33784,-5.66052 -1.57466,-8.54816 c-0.66202,-8.07256 0.44991,-24.29481 0.44991,-24.29481 c0.0918,-4.95717 0.23208,-9.93397 0.8998,-14.84682 c0.48525,-3.57032 1.62336,-7.02443 2.24953,-10.57274 c0,0 0.87878,-5.10272 1.34971,-7.64837 c0.43069,-2.32813 1.0286,-4.62774 1.3497,-6.9735 c0.37752,-2.75779 0.10255,-5.59917 0.67487,-8.32323 c0.42416,-2.01901 2.02456,-5.84874 2.02456,-5.84874 c1.02226,-2.95321 2.9205,-5.54605 4.72399,-8.09828 c1.47382,-2.08568 4.94894,-5.84873 4.94894,-5.84873 c2.00231,-2.36638 3.69612,-5.03793 4.94894,-7.87332 c1.13229,-2.56262 2.24952,-8.09827 2.24952,-8.09827 c1.18476,-4.2651 -0.3749,-8.8462 -0.4499,-13.27216 c-0.11306,-6.67262 0,-20.02072 0,-20.02072 c0,-4.86934 2.01207,-9.54959 2.47447,-14.39692 c0.3561,-3.733 0.27241,-7.49794 0.22495,-11.24759 c0,0 -0.63255,-11.86103 -0.22495,-17.77119 c0.17219,-2.49679 0.54907,-4.98782 1.12476,-7.42342 c0,0 2.03416,-8.22915 2.92438,-12.37235 c0.49736,-2.31481 1.34971,-6.97351 1.34971,-6.97351 c0,0 0.29215,-2.7003 0.4499,-4.04914 c0.50022,-4.27703 1.14042,-8.53801 1.57466,-12.82225 c0.37928,-3.742 0.55794,-7.50198 0.8998,-11.24759 c0.267202,-2.92755 -0.007,-5.97669 0.899816,-8.77313 c0.507685,-1.566 1.224562,-3.20273 2.474476,-4.27408 c0,0 3.017945,-2.86985 4.723989,-4.04913 c2.953666,-2.04169 6.299162,-3.44833 9.447978,-5.17389 c2.324878,-1.27404 4.684188,-2.4873 6.973502,-3.82419 c2.210107,-1.29063 4.569824,-2.39593 6.523603,-4.04913 c0,0 4.249845,-2.95753 5.848752,-4.94894 c1.007963,-1.2554 1.684213,-2.76662 2.249513,-4.27409 l2.699426,-7.19846 c0.496767,-1.32471 1.764052,-2.27033 2.249513,-3.59923 c0.363868,-0.99605 0.53676,-2.09245 0.449913,-3.14932 c-0.122358,-1.48903 -1.284586,-2.78146 -1.349713,-4.27409 c-0.09041,-2.07198 1.349713,-6.07369 1.349713,-6.07369 c0.360071,-1.62032 -0.781449,-3.26596 -1.574663,-4.72399 c-0.229449,-0.42176 -0.899813,-1.12477 -0.899813,-1.12477 c-1.264739,-1.58092 0.434317,-4.09626 0,-6.0737 c-0.230314,-1.04861 -1.349713,-2.92437 -1.349713,-2.92437 c-0.311069,-0.67398 -0.900746,-1.26346 -1.574663,-1.57467 c-1.707333,-0.78842 -5.623789,-0.4499 -5.623789,-0.4499 c-3.525724,-0.28205 -7.052649,0.55451 -10.572742,0.8998 c-2.70306,0.26515 -8.098265,0.89982 -8.098265,0.89982 c-2.921737,0.32464 -5.905953,0.25077 -8.773128,0.89981 c-2.174418,0.49221 -4.10193,1.86901 -6.298655,2.24951 c-0.51718,0.0896 -1.20351,0.37116 -1.57466,0 c-0.79532,-0.79533 0,-3.37427 0,-3.37427 c0,0 -0.14722,-2.4985 -0.67485,-3.59923 c-0.89647,-1.8702 -4.04914,-4.72399 -4.04914,-4.72399 c-1.14235,-1.33274 -3.20982,-1.56164 -4.94894,-1.79962 c-1.93729,-0.26511 -5.84875,0.44991 -5.84875,0.44991 c-1.12145,0.0863 -2.27622,0.2436 -3.37428,0 c-3.63523,-0.80648 -10.12283,-4.72399 -10.12283,-4.72399 c-4.70619,-2.19623 -10.32858,-1.29178 -15.52168,-1.34971 c-6.98757,-0.078 -14.04132,0.12131 -20.92052,1.34971 c-2.84934,0.50879 -8.32322,2.47446 -8.32322,2.47446 c-1.2716,0.37805 -1.96022,1.82281 -2.69942,2.92438 c-0.69162,1.03066 -0.60496,2.5995 -1.57466,3.37427 c-1.37886,1.10168 -3.47945,0.63104 -5.1739,1.12477 c-1.45769,0.42473 -4.27408,1.57466 -4.27408,1.57466 c-1.84151,0.67845 -2.63959,2.90857 -4.04914,4.27409 c-1.94555,1.88476 -6.0737,5.39884 -6.0737,5.39884 c-1.91289,1.70035 -2.77859,4.81442 -4.04913,6.5236 c-1.27052,1.70918 -2.66905,2.27737 -3.37429,3.82419 c-0.94144,2.06494 0.10557,4.714 -0.8998,6.74855 c-0.42281,0.85562 -1.58163,1.17919 -2.02456,2.02457 c-0.77816,1.48518 -0.89981,4.94893 -0.89981,4.94893 c-0.48289,2.65589 -0.56038,5.45766 0,8.09828 c0.30662,1.44484 1.79961,4.04913 1.79961,4.04913 c0.58579,1.31803 1.28616,2.58519 2.02456,3.82419 c0.41524,0.69673 1.21622,1.22454 1.34972,2.02456 c0.24247,1.45311 -1.12475,4.27409 -1.12475,4.27409 c-1.4583,5.54159 -0.77782,11.4579 -1.79963,17.09633 c-0.7459,4.11597 -3.14932,12.14741 -3.14932,12.14741 c-0.74564,2.87602 -4.00844,4.49211 -6.52361,6.0737 c-1.56776,0.98584 -5.17389,2.02456 -5.17389,2.02456 c-1.96637,0.76946 -5.17389,0.22495 -6.29865,0.67486 c-1.12476,0.4499 -5.29153,-0.15268 -7.87331,-0.67486 c-2.85879,-0.5782 -5.58877,-1.68465 -8.32322,-2.69941 c-2.36315,-0.87698 -6.97351,-2.92438 -6.97351,-2.92438 c-3.5449,-1.48657 -7.04869,-3.19994 -10.7977,-4.04914 c-3.37673,-0.76487 -6.88552,-0.8901 -10.34777,-0.8998 l-40.15391,-0.11249 c-7.16922,-0.02 -14.3582,1.10846 -21.4829,0.78733 c-1.14375,-0.0515 -4.72399,-1.79961 -7.64837,-2.92438 c-2.92437,-1.12476 -4.46581,-2.60994 -6.74855,-3.82417 l-10.57274,-5.62379 c0,0 0,0 0,0 c0,0 -5.96168,-2.21206 -8.99808,-3.14933 c-3.04147,-0.93883 -6.29865,-2.24951 -9.22303,-2.47446 c-2.92437,-0.22496 -13.81735,-1.12476 -10.34778,-1.12476 c1.18193,0 -4.22286,-0.18944 -6.5236,0.22495 c-1.72753,0.31114 -4.94895,1.79961 -4.94895,1.79961 c-1.34631,0.48957 -2.5767,1.61123 -3.14933,2.92437 c-0.50953,1.16847 -0.26986,2.57835 0,3.82418 c0.19181,0.8855 0.62256,1.72035 1.12477,2.47448 c0.79404,1.19236 1.71991,2.37376 2.92437,3.14932 c2.19302,1.41211 4.96691,1.59759 7.42342,2.47448 c3.17395,1.13299 6.14101,3.73451 9.44798,3.59922 c3.37905,-0.13824 4.75086,0.54802 7.19845,2.69943 c1.68762,1.4834 5.39885,4.04913 5.39885,4.04913 c2.21223,1.65916 4.33636,3.45047 6.29865,5.39885 c1.62182,1.61031 4.49904,5.17389 4.49904,5.17389 c2.25368,2.59173 5.31813,4.41067 8.32322,6.0737 c2.82645,1.56418 8.99807,3.59923 8.99807,3.59923 c1.99364,0.79744 3.82592,1.97921 5.84874,2.69942 c1.27643,0.45446 3.93666,1.01227 3.93666,1.01227 c5.30733,1.36474 -0.94665,10.50998 -2.13704,15.85911 c-1.00435,4.51314 -2.02457,13.72207 -2.02457,13.72207 c-0.66986,4.54021 -1.1167,9.13272 -1.12476,13.72207 c-0.006,3.83592 0.32093,7.68055 0.89981,11.47254 c0.40628,2.66129 1.66459,5.18458 1.79962,7.87331 c0.0606,1.20756 -0.4499,3.59923 -0.4499,3.59923 c-0.35925,2.874 -2.92438,7.19847 -3.14933,8.09828 c-0.22495,0.8998 -2.89182,5.52248 -3.14932,8.54816 c0,0 -0.74971,7.03895 -0.89982,10.57275 c-0.30548,7.19197 0,21.59537 0,21.59537 c0,2.41001 -0.4499,6.29865 -0.67485,7.19846 c-0.22495,0.89981 -1.57466,7.19847 -1.79961,8.09827 c-0.22495,0.89981 -1.79961,8.54817 -2.02458,9.89787 c-0.22495,1.34972 -2.72665,7.03819 -4.04912,10.57275 c-1.45474,3.88805 -2.54843,7.92187 -4.27409,11.6975 c-0.96276,2.10643 -3.37428,6.0737 -3.37428,6.0737 c-1.30284,2.3451 -2.37167,4.81308 -3.59922,7.19845 c-0.66,1.2825 -1.78465,2.40194 -2.02458,3.82419 c-0.16406,0.97252 0.44991,2.92437 0.44991,2.92437 c0.19684,1.27937 -0.17072,2.84412 0.67485,3.82419 c0.3098,0.35907 1.34972,0.4499 1.34972,0.4499 c0.57351,0.19116 1.05178,-1.20324 1.57466,-0.8998 c0.38912,0.22581 -0.0669,0.9048 0,1.3497 c0.15166,1.00855 0.47222,1.99844 0.89981,2.92437 c0.40989,0.88761 0.73017,1.98186 1.57466,2.47448 c0,0 1.69381,1.3028 2.69942,1.57466 c0.79624,0.21526 2.1056,0.73775 2.47447,0 c0,0 0.23415,-1.71767 0.8998,-1.79961 c0.68614,-0.0844 0.70002,1.33841 1.34972,1.57466 c0,0 1.65565,0.83771 2.47447,0.8998 c0.81883,0.0621 2.02463,0.28097 2.24952,-0.4499 c0,0 0.0183,-2.41159 0.89981,-2.92438 c0.59758,-0.34758 1.33325,0.4499 2.02456,0.4499 c0,0 0.92127,0.1373 1.34972,0 c0.61426,-0.19684 1.2795,-0.5512 1.57466,-1.12475 c0.48036,-0.93342 -0.893,-2.59742 0,-3.14932 c0.5705,-0.3526 1.79961,0.8998 1.79961,0.8998 c0.91222,0.45611 2.19487,-0.18706 2.92438,-0.8998 c1.18724,-1.15996 1.25779,-3.09468 1.57466,-4.72399 c0.22949,-1.17998 0.22495,-3.59924 0.22495,-3.59924 c0,0 -0.40917,-11.84986 -0.22495,-17.77119 c0.0936,-3.00634 0.67485,-8.99808 0.67485,-8.99808 c0.50608,-6.74791 2.47319,-13.33926 4.49904,-19.79576 c1.01714,-3.2417 3.82419,-9.44798 3.82419,-9.44798 c1.29108,-3.18972 0.65662,-6.96531 2.02456,-10.12284 c1.02569,-2.36751 4.49904,-6.29865 4.49904,-6.29865 c2.26047,-3.16466 4.21238,-6.54514 6.5236,-9.67293 c1.48934,-2.01552 4.72399,-5.84875 4.72399,-5.84875 c1.07542,-1.33147 1.78864,-2.93091 2.47448,-4.49903 c0.66512,-1.52074 0.92503,-3.19655 1.57466,-4.72399 c0.69573,-1.63581 1.1388,-3.551 2.47446,-4.72398 c1.14084,-1.00188 4.27409,-1.57467 4.27409,-1.57467 c2.05978,-0.75886 4.47116,0.12131 6.52361,0.8998 c1.76949,0.67117 4.72398,3.14933 4.72398,3.14933 c1.54472,1.0298 3.32064,2.26221 3.82418,4.04914 c0.39489,1.40135 -0.3725,2.91699 -0.8998,4.27407 c-0.69397,1.78605 -2.92438,4.94896 -2.92438,4.94896 c-1.12709,1.90739 -2.23949,3.90643 -2.69942,6.07369 c-0.28019,1.32031 0,4.04913 0,4.04913 c0,3.29419 1.02164,6.53515 2.02457,9.67293 c0.7974,2.49475 2.25315,4.73748 3.14933,7.19847 c0.90931,2.49702 2.24951,7.64836 2.24951,7.64836 c0.71937,2.44586 0,6.52359 0,7.64836 c0,1.12475 -0.12421,6.05035 0.4499,8.99807 c0.34906,1.79231 0.47254,3.91969 1.79962,5.17391 c0.79348,0.74991 3.14932,0.8998 3.14932,0.8998 c0.88009,0.25145 1.3367,-1.50742 2.24953,-1.57467 c0.66887,-0.0492 1.79961,0.89982 1.79961,0.89982 c1.14212,0.57106 1.72535,2.03525 2.92438,2.47446 c1.61939,0.59319 3.44925,0 5.17389,0 c0.74984,0 2.24952,0 2.24952,0 c0.87446,0 1.81868,-0.58876 2.24952,-1.34971 c0.18472,-0.32626 0,-1.12475 0,-1.12475 c0,-1.0199 1.79962,0.8998 2.47447,1.79961 c0.67487,0.8998 3.44343,2.16037 4.94894,1.34971 l2.92438,-1.57466 c0.79773,-0.42956 0.29044,-2.12117 1.12475,-2.47448 c1.02648,-0.43468 2.11498,1.54036 3.14932,1.12477 c0.46675,-0.18754 0.48237,-0.885 0.67487,-1.34972 c0.36296,-0.87628 0.8998,-2.69942 0.8998,-2.69942 c0.32251,-0.96756 -0.56017,-1.9627 -0.8998,-2.92438 c-0.5379,-1.52301 -1.79962,-4.49904 -1.79962,-4.49904 c-0.7601,-1.90028 -4.49904,-2.92436 -5.39885,-2.92436 c-0.8998,0 -4.26834,-2.44184 -6.29865,-3.82419 c-1.94626,-1.32512 -4.10386,-2.47585 -5.62379,-4.27409 c-1.1475,-1.35762 -2.47448,-4.72399 -2.47448,-4.72399 c-0.82702,-1.57886 -1.18841,-3.39885 -1.34971,-5.17389 c-0.18372,-2.02178 0.4499,-6.0737 0.4499,-6.0737 c0.13759,-1.85747 2.23874,-3.002 3.59924,-4.27408 c1.01881,-0.95259 3.37428,-2.47447 3.37428,-2.47447 c0.7256,-0.53211 1.84254,-0.2746 2.69942,0 c1.22853,0.3937 3.14933,2.24951 3.14933,2.24951 c2.56344,1.83102 5.15483,3.66302 7.4234,5.84875 c1.4174,1.36564 2.35377,3.19066 3.82419,4.49904 c0.8079,0.71888 1.64336,1.74849 2.69941,1.79961 c4.91223,0.23777 3.24891,16.28388 2.47448,24.74471 z" sodipodi:nodetypes="cssssssssssssssssssssssssssssssssssssssssssssscssssssssssssssssszssssssssssssssssssssssssssssssssssscssssssssssssssssssssssssssscssssssssssssssszssssssssssssssssssssszscssssssssssssssssssssssssssssssssssssssssssssssssszssssssssscsssssssssssssssssssssszsssssssssszsssssssszssssssssssssc" style="fill:#ccc;fill-opacity:1;stroke:#000;stroke-width:1.25973046px;stroke-linecap:butt;stroke-linejoin:miter;stroke-opacity:1"></path>
<path id="cat" d="M861.34906,513.20459 L748.349121,513.20459 C748.349121,497.140961 749.496033,493.954559 776.09906,493.954559 C771.84906,481.204559 754.573853,450.358093 744.974121,450.358093 C736.481079,450.358093 726.349121,450.825928 726.349121,470.204559 C726.349121,492.204559 689.326416,527.675476 680.349121,513.20459 C666.970459,491.638977 703.349121,498.215149 703.349121,446.204529 C703.349121,375.051331 661.823975,385.180725 661.823975,345.204529 C661.823975,325.204559 667.349121,322.503723 667.349121,308.204559 C667.349121,289.306946 650.700928,290.403564 653.940063,274.734863 C656.17749,263.911652 657.928467,255.231995 659.232971,242.14389 C660.158569,232.8573 660.453613,222.959396 670.099609,223.357391 C681.433105,223.824982 685.732666,243.774185 703.349121,245.204529 C720.929565,246.631989 735.9198,230.238037 742.724121,232.579559 C749.471069,234.901337 747.349121,253.204529 743.349121,266.204529 C737.062256,286.63678 723.349121,313.204559 748.349121,317.204559 C773.34906,321.204559 816.34906,325.204559 847.34906,366.204529 C878.34906,407.204529 877.204712,455.321198 889.349121,470.204559 C930.107422,520.155273 971.874207,499.64624 971.874207,541.20459 C971.874207,559.810181 940.34906,573.20459 935.34906,567.20459 C930.34906,561.20459 977.834351,543.325867 924.702637,522.20459 C879.311035,504.160156 875.258972,500.476624 861.34906,513.20459 z" style="fill:#ccc; fill-opacity:1; fill-rule:evenodd; stroke:none; stroke-width:1px; stroke-linecap:butt; stroke-linejoin:miter; stroke-opacity:1;"></path>
<path id="catbowl" d="M653.192993,505.320984 c-1.291933,-3.225316 -3.970396,-9.915626 -9.240695,-23.534328 c-0.099911,-0.344374 -0.251903,-0.677056 -0.449068,-0.991137 c-3.036653,-5.46587 -17.062971,-11.085326 -41.896679,-11.085326 c-25.381617,0 -39.473301,5.870296 -42.081081,11.447238 c-0.049423,0.09938 -0.096191,0.19929 -0.13658,0.300796 c-0.003721,0.010097 -0.009035,0.019663 -0.012754,0.029229 C554.029846,495.310303 551.322144,502.071777 550.02124,505.320984 C548.488525,509.149475 548.396545,509.37854 548.396545,510.614075 c0,5.524328 5.703424,9.635555 17.437109,12.568578 c9.604199,2.401051 22.308826,3.723275 35.773415,3.723275 s26.169214,-1.322225 35.773415,-3.723275 c11.73315,-2.933022 17.437109,-7.04425 17.437109,-12.568578 C654.817566,509.37854 654.725708,509.149475 653.192993,505.320984 z M632.944031,482.462585 c-5.319725,2.442503 -15.407004,5.707676 -31.336945,5.707676 c-15.931537,0 -26.017223,-3.265705 -31.336416,-5.707676 c4.758523,-2.134266 14.428088,-4.780843 31.336416,-4.780843 C618.515442,477.681824 628.185486,480.32843 632.944031,482.462585 z M633.647217,515.876404 c-8.76718,1.972177 -20.145861,3.058442 -32.040043,3.058442 s-23.27286,-1.086265 -32.040043,-3.058442 c-9.728026,-2.188474 -12.431466,-4.541694 -13.066539,-5.275082 c0.198759,-0.512309 0.51656,-1.306282 0.920987,-2.316551 c1.158541,-2.893164 3.428326,-8.563639 7.666035,-19.473059 c5.829376,3.007956 17.50885,7.330696 36.519558,7.330696 c19.011234,0 30.69018,-4.323273 36.519028,-7.330696 c4.23771,10.909418 6.508024,16.579893 7.666566,19.473059 c0.404958,1.010801 0.722228,1.804774 0.920987,2.316551 C646.079102,511.334717 643.375183,513.687927 633.647217,515.876404 z" fill="#ccc"></path>
<path id="dogbowl" d="M444.615997,522.374023 c-0.003,-0.062 -0.007,-0.12 -0.016,-0.178 C444.109009,512.848022 419.187012,508.583008 396,508.583008 c-23.419,0 -48.625,4.348 -48.625,13.892 c0,0.518 0.088,1.018 0.232,1.505 c0.015,0.178 0.046,0.355 0.104,0.532 l11.426,26.52 C361.075012,559.167969 378.634003,563.416992 396,563.416992 c17.389,0 34.969,-4.26 36.869,-12.416 l10.96,-25.729 c0.457,-0.782 0.717,-1.607 0.771,-2.479 c0.006,-0.056 0.009,-0.111 0.013,-0.167 c0,-0.05 0.012,-0.1 0.012,-0.151 C444.625,522.44104 444.617004,522.40802 444.615997,522.374023 z M389.119995,551.971008 c-0.886,0.212 -1.794,-0.231 -2.319,-1.043 c-0.99,-1.445 -1.545,-3.63 -0.74,-4.76 c0.384,-0.543 2.761,0.646 3.581,1.32 c0.483,0.348 0.861,0.895 1.02,1.559 C390.979004,550.38501 390.289001,551.692017 389.119995,551.971008 z M390.352997,535.924011 c1.824,-0.776 2.745,4.4 2.917,5.703 c0.169,1.277 -0.428,2.528 -1.521,2.992 C387.958984,546.234009 385.619995,537.94104 390.352997,535.924011 z M402.666992,556.838013 c-1.734,0.701 -3.221,0.679 -4.512,0.296 c-0.98,0.923 -2.298,1.613 -4.161,1.769 c-1.658,0.188 -3.279,-1.084 -3.629,-2.55 c-0.43,-1.805 0.032,-2.721 1.501,-3.623 c1.719,-1.475 1.035,-3.182 1.11,-4.805 c0.062,-1.312 0.979,-2.479 2.321,-2.798 c1.37,-0.324 2.744,0.338 3.371,1.526 c0.788,1.49 1.144,3.243 3.158,3.718 c1.726,0.17 2.492,0.714 2.931,2.556 C405.106995,554.400024 404.231018,556.26001 402.666992,556.838013 z M395.569,534.682983 c5.134,-0.33 6.78,8.128 2.669,8.392 c-1.186,0.077 -2.279,-0.769 -2.705,-1.987 C395.100006,539.848022 393.591003,534.812012 395.569,534.682983 z M405.497986,546.479004 c-0.104,0.961 -0.716,1.765 -1.602,1.977 c-1.169,0.277 -2.375,-0.58 -2.692,-1.918 c-0.159,-0.664 -0.067,-1.322 0.209,-1.852 c0.428,-0.969 2.014,-3.102 2.602,-2.79 C405.240997,542.544983 405.731018,544.742981 405.497986,546.479004 z M396,531.73999 c-28.465,0 -43.994,-6.12 -43.994,-9.265 c0,-3.143 15.529,-9.261 43.994,-9.261 c28.465,0 43.994,6.119 43.994,9.261 C439.994019,525.619995 424.464996,531.73999 396,531.73999 z" fill="#ccc"></path>
<path id="dogleash" d="M73.497986,669.695007 c0.582035,-0.330963 1.195455,-0.747515 1.834555,-1.269637 c0,0 -2.52786,-1.486474 -6.062874,0.445086 c-2.362381,1.292463 -0.445086,2.005741 0.71328,1.962945 c0.70472,-0.028533 1.703313,-0.233955 2.875941,-0.801725 h0 c0,0 1.717577,0.71328 1.492181,2.676226 l-2.719022,1.737549 c0,0 -2.362381,1.204017 -5.038606,0 s-4.191229,-2.49648 -3.032864,-6.331066 s8.114264,-4.724763 9.629271,-4.636316 s6.998696,1.069921 8.470904,0.222543 l5.349596,-3.032864 c0,0 -2.622016,-3.486508 -0.35664,-5.885982 c0.835963,-0.887318 5.255442,-2.564954 6.151322,-2.987213 c0.758932,-0.35664 1.249665,0.624833 1.249665,0.624833 s19.033144,-5.326769 33.184608,-14.490981 c12.482386,-8.082884 29.837902,-18.239977 29.837902,-18.239977 c3.803204,-2.972947 7.900281,-5.352447 11.292638,-9.035825 c0,0 -6.502253,-10.510884 -22.348467,-8.915993 c-21.281403,2.139838 -33.532692,16.81057 -55.515961,28.294361 c-5.229764,2.733288 -18.841986,4.696231 -29.124624,-1.306728 c-7.132796,-4.162698 -6.182704,-6.302536 -7.132796,-11.29549 c0,0 -1.189749,-8.082884 2.616308,-14.859035 s14.502394,-11.532299 26.391335,-16.998873 s19.851992,-10.462382 26.747976,-12.362559 s7.609263,-1.303873 12.362559,-4.818914 c0,0 12.482386,-25.321415 39.766754,-25.321415 s27.926315,9.04153 28.531168,10.699187 C191.505859,556.083801 189.768265,563.573242 189.054993,564.999817 s-6.559318,18.248541 -36.556992,18.725006 c-6.062874,0.097006 -21.934769,-2.49648 -24.608139,-3.032864 s-5.349596,-0.893025 -8.559351,-0.179747 S75.286926,597.990417 69.93734,601.020386 S46.57605,611.362854 65.30101,620.635559 s38.340195,-9.095737 42.263226,-10.699187 s27.170235,-23.061749 48.146351,-17.118704 c5.55502,1.57492 15.224233,4.430889 15.871892,11.055829 c0.71328,7.312542 -0.71328,12.482386 -0.71328,12.482386 s-1.743251,9.994472 -21.221489,22.111658 c-20.060268,12.482386 -44.403065,22.648046 -45.829617,23.538218 c0,0 0.134096,1.472209 -0.134096,2.185489 l-5.127054,2.362381 c0,0 -1.871643,0.71328 -4.368123,0 s-3.477948,-2.49648 -3.477948,-2.49648 l-7.044344,4.191229 c0,0 0.268193,2.273936 -1.606306,2.853117 s-2.139838,-0.268193 -2.408031,-0.758932 c0,0 -1.069921,0.134096 -1.606306,-0.35664 l-3.209756,2.450828 C74.841843,672.43689 74.744835,670.094238 73.497986,669.695007 L73.497986,669.695007  z M161.254196,571.122681 c16.496727,-0.453646 23.161604,-10.191336 23.161604,-10.191336 s-2.045686,-7.746215 -20.511061,-8.048643 c-22.867739,-0.373759 -32.770905,16.120113 -32.770905,16.120113 C141.878616,569.907288 144.757492,571.576111 161.254196,571.122681  z " fill="#ccc"></path>
<path id="sensor.dogfed_time" d="M394.849579,465.783447 c-16.4,0 -29.6,13.3 -29.6,29.6 c0,16.3 13.3,29.6 29.6,29.6 c16.3,0 29.6,-13.3 29.6,-29.6 c0,-16.3 -13.2,-29.6 -29.6,-29.6  z m-5.7,44.2 v0 l-0.3,0.2 l-12.1,-12.2 l5.7,-5.6 l6.5,6.6 l18.3,-18.3 l5.7,5.7  z " visibility="visible" fill="#3FA9FF"></path>
<path id="sensor.catfed_time" d="M597.849609,425.783447 c-16.4,0 -29.6,13.3 -29.6,29.6 c0,16.3 13.3,29.6 29.6,29.6 c16.3,0 29.6,-13.3 29.6,-29.6 c0,-16.3 -13.2,-29.6 -29.6,-29.6  z m-5.7,44.2 v0 l-0.3,0.2 l-12.1,-12.2 l5.7,-5.6 l6.5,6.6 l18.3,-18.3 l5.7,5.7  z " fill="#3FA9FF"></path>
<path id="sensor.dogwalked_time" d="M76.849579,517.783447 c-16.4,0 -29.6,13.3 -29.6,29.6 c0,16.3 13.3,29.6 29.6,29.6 c16.3,0 29.6,-13.3 29.6,-29.6 c0,-16.3 -13.2,-29.6 -29.6,-29.6  z m-5.7,44.2 v0 l-0.3,0.2 l-12.1,-12.2 l5.7,-5.6 l6.5,6.6 l18.3,-18.3 l5.7,5.7  z " visibility="visible" fill="#3FA9FF"></path>
</g>
</svg>
