<?xml version="1.0" encoding="utf-8" standalone="yes"?>
<!DOCTYPE svg PUBLIC "-//W3C//DTD SVG 1.1//EN" "http://www.w3.org/Graphics/SVG/1.1/DTD/svg11.dtd">
<svg xmlns="http://www.w3.org/2000/svg" xmlns:xlink="http://www.w3.org/1999/xlink" xmlns:dc="http://purl.org/dc/elements/1.1/" xmlns:cc="http://web.resource.org/cc/" xmlns:rdf="http://www.w3.org/1999/02/22-rdf-syntax-ns#" xmlns:sodipodi="http://sodipodi.sourceforge.net/DTD/sodipodi-0.dtd" xmlns:inkscape="http://www.inkscape.org/namespaces/inkscape" version="1.1" baseProfile="full" width="1024px" height="600px" viewBox="0 0 1024 600" preserveAspectRatio="xMidYMid meet" id="svg_document" style="zoom: 1;"><title id="svg_document_title">Untitled.svg</title><defs id="svg_document_defs"></defs><path d="M60.000183,41 C50.075195,41 42.000183,32.926025 42.000183,23 C42.000183,13.073975 50.075195,5 60.000183,5 C69.925201,5 78.000183,13.073975 78.000183,23 C78.000183,32.926025 69.925201,41 60.000183,41 M2.000198,23 C2.000198,35.150024 11.850204,45 23.992203,45 L60.008209,45 C72.153198,45 82.000183,35.151978 82.000183,23 C82.000183,21.481018 81.846191,19.997986 81.553192,18.56604 C79.502197,8.541016 70.633209,1 60.008209,1 L23.992203,1 C11.847198,1 2.000198,10.848022 2.000198,23 " fill="#F8D2B9"></path><path d="M70.799011,17.071289 C70.013,16.285278 68.752991,16.289307 67.973999,17.067261 L59.485992,25.556274 L55.247986,21.320312 C54.46698,20.537292 53.195007,20.533325 52.414001,21.313293 C51.627991,22.099304 51.635986,23.363281 52.419983,24.148315 L58.065002,29.793335 C58.067017,29.795288 58.069,29.796265 58.070007,29.79834 C58.070984,29.79834 58.070984,29.799316 58.070984,29.799316 C58.858002,30.586304 60.117004,30.582275 60.897003,29.802307 L70.803009,19.896301 C71.582001,19.11731 71.580017,17.851318 70.799011,17.071289 " fill="#F8D2B9"></path></svg>