<?xml version="1.0" encoding="utf-8" standalone="yes"?>
<!DOCTYPE svg PUBLIC "-//W3C//DTD SVG 1.1//EN" "http://www.w3.org/Graphics/SVG/1.1/DTD/svg11.dtd">
<svg xmlns="http://www.w3.org/2000/svg" xmlns:xlink="http://www.w3.org/1999/xlink" xmlns:dc="http://purl.org/dc/elements/1.1/" xmlns:cc="http://web.resource.org/cc/" xmlns:rdf="http://www.w3.org/1999/02/22-rdf-syntax-ns#" xmlns:sodipodi="http://sodipodi.sourceforge.net/DTD/sodipodi-0.dtd" xmlns:inkscape="http://www.inkscape.org/namespaces/inkscape" version="1.1" baseProfile="full" width="1024px" height="600px" viewBox="0 0 1024 600" preserveAspectRatio="xMidYMid meet" id="svg_document" style="zoom: 1;"><title id="svg_document_title">Untitled.svg</title><defs id="svg_document_defs"></defs><path d="M60.007996,41 L36.641998,41 C42.299988,37.02002 46,30.442993 46,23 C46,15.557007 42.299988,8.97998 36.641998,5 L60.007996,5 C69.929016,5 78,13.074005 78,23 C78,32.925995 69.929016,41 60.007996,41 M6,23 C6,13.074005 14.075012,5 24,5 C33.924988,5 42,13.074005 42,23 C42,32.925995 33.924988,41 24,41 C14.075012,41 6,32.925995 6,23 M60.007996,1 L23.992004,1 C13.367004,1 4.497986,8.541016 2.446991,18.56601 C2.153992,19.997986 2,21.481018 2,23 C2,35.152008 11.846985,45 23.992004,45 L60.007996,45 C72.151001,45 82,35.149994 82,23 C82,10.847992 72.153992,1 60.007996,1 " fill="#F8D2B9"></path><path d="M26.828308,23 L30.36731,19.460999 C31.146301,18.682007 31.144287,17.416992 30.363281,16.636993 C29.578308,15.850006 28.318298,15.854004 27.539307,16.632996 L24.000305,20.171997 L20.461304,16.632996 C19.682312,15.854004 18.417297,15.85498 17.637299,16.636993 C16.849304,17.421997 16.853302,18.682007 17.633301,19.460999 L21.172302,23 L17.633301,26.539001 C16.853302,27.317993 16.855286,28.583008 17.637299,29.363007 C18.422302,30.149994 19.682312,30.145996 20.461304,29.367004 L24.000305,25.828003 L27.539307,29.367004 C28.318298,30.145996 29.583313,30.14502 30.363281,29.363007 C31.150299,28.578003 31.146301,27.317993 30.36731,26.539001 L26.828308,23  Z " fill="#F8D2B9"></path></svg>